@startuml

class Spill {
    -spiller: spriteGroupSingle 
    -mat: spriteGroup 
    +kjør()
    +leggTilMat()
    +fjernMat()
    +oppdater()
    +tegne()
    +sjekkKollisjon()
}

class Spiller {
    -posisjon: tuple
    -hastighet: int
    +beveg()
}

class Mat {
    -posisjon: tuple
    -spriteGroup: spriteGroup
}

Spill "1" *-- Spiller
Spill "1" *-- Mat

@enduml